<svg version="1.2" xmlns="http://www.w3.org/2000/svg" viewBox="0 0 251 251" width="251" height="251"><style>.a{fill:none;stroke:#00090c;stroke-width:2}.b{fill:none;stroke:#013c54;stroke-width:2}.c{fill:none;stroke:#005c80;stroke-width:2}.d{fill:none;stroke:#0198d4;stroke-width:2}.e{fill:none;stroke:#00648c;stroke-width:2}.f{fill:none;stroke:#014560;stroke-width:2}.g{fill:#00b7ff}.h{fill:#001118}.i{fill:#0178a8}</style><path class="a" d="m44.1 206.2q-1 1.9 3.2 5.7c1.5 1.4 3.7 1.6 5.5 3q3.6 2.7 7.3 4.4c5.7 2.7 11.7 5.7 17.9 7.7q6.2 2 8.3 2.4 8.2 1.4 16.4 2.2 6.6 0.7 11.8 2c12.6 3 26 3.8 38.3 2q0.9-0.2 1.9-0.5 1.2-0.4 1.8 0.7 3.6 5.6 7.6 11.7 0.1 0.2 0.3 0.3 0.2 0.1 0.4 0.1 0.2 0 0.4-0.1 0.2-0.1 0.3-0.2 0.7-0.9 1.7-0.3 0.8 0.5 1.1-0.4 0.2-0.6-0.2-1.3-0.1-0.3-0.3-0.5-0.1-0.2-0.3-0.3-0.1-0.2-0.3-0.4-0.2-0.1-0.4-0.2-0.5-0.4-0.4-0.9 0.1-0.3 0-0.6-0.1-0.3-0.4-0.4-0.6-0.2-0.4-0.8 0.2-0.5-0.3-0.9-0.4-0.3-0.5-0.9-0.3-1.5-0.1-2.9 0.1-0.7-0.6-0.7h-0.7q-0.4 0-0.8-0.3-1-1.2 0-1.7"/><path class="b" d="m162.6 234.1q5.2-0.4 10.3-3"/><path class="c" d="m172.8 231.1q10.2-4 14.6-7.4 6.7-5.1 12.6-9.3 7.6-5.5 12.3-10.5 13.4-14.6 20.3-28.7 7.5-15.1 10.7-32.5c3.2-17 1.7-33.9-2.3-51q-1.9-8.2-6.3-17.8-4.7-10.3-10.5-19-5.5-8.2-12.7-15.4-36.3-36.2-86.8-35.6-10.5 0.1-20.3 2.1-19.8 3.9-36.7 13.6-18.6 10.7-33.9 29.8-6.4 7.9-10.7 16.5-6.4 13.1-10.2 25.9c-1.9 6.2-2.6 13.1-3.3 19.5q-0.8 6.9-0.1 15.4 1.3 16.2 6 32.7 2.9 10.3 8 18.6 4.7 7.7 9.5 15.5 2.5 4 11.1 12.7"/><path class="d" d="m172.8 231.1q-1.2-2-0.4-5.4 0.7-2.9 0.4-4.8 0 0 0.1 0-0.1 1.3 0 2.5 0.1 0.8 0.4 0 0.3-1.2 0.3-2.3-0.2-4.3-0.4-9-0.1-2.3-0.6-4.7-0.5-2.5-1-5.2-0.6-2.8-1.7-5.2-1.1-2.2-0.9-4.7 0.2-2.7 1.3-5.5 0.6-1.4 2-2.8 1.3-1.2 2.4-2.5 1.5-1.8 2.6-4.4 2.6-6 4-7.7 2-2.7 5-2.9 5.6-0.5 10.8-0.9c2.1-0.2 5.2-0.8 6.5-2.6q0.7-0.9 1.4-1.7 1-1.3 1.8-2.9 2.2-4.6 4.6-9 0.2-0.4 0.4-0.9 0.2-0.5 0.3-1 0.1-0.5 0.2-1 0-0.5 0.1-1c-0.1-5.5-0.2-11.1 0.4-16.7q0.2-1.4 0.9-3.1 0.8-1.8 0.6-3.3-0.4-2.3-1.4-5.4-0.2-0.5-0.7-0.7-0.5-0.2-0.4-0.8-1.7-3-3.2-5.9-0.6-1.2-0.7-2.3-0.2-1.4-0.6-2.6-0.4-1.4-0.6-2.8-0.4-4 0.4-7.7 0.7-3.7 0.4-6.8-0.4-4.6-1.9-7.4-1.2-2.5-2.5-5.2c-0.7-1.4-2.1-2.1-2.3-3.8q0-0.5-0.4-0.9l-0.9-0.7q-0.4-0.3-0.6-0.8-0.8-1.9-1.9-3.8-0.9-1.7-1.4-3.9-0.4-1.9-2.1-3.9-3.8-4.3-8.2-7.6-1.4-1.1-2.7-2.4-0.3-0.4-0.7-0.5-1.2-0.3-1.6-1.5-0.1-0.5-0.6-0.5-0.7-0.1-1.3-0.8-0.2-0.2-0.4-1-0.1-0.6-0.5-1"/><path class="e" d="m177.5 41.7q-0.4-3.5-2.2-4.6c-5-2.7-9.3-6.4-15.1-8q-4.5-1.2-8.4-3-3.9-1.8-7.2-2-10.2-0.4-24.3 0.6c-5.1 0.4-9.5 2.2-13.4 5.1-10.5 7.8-19.4 18-21.5 30.4q-2.2 12.3-2.6 22.4-0.5 11.9 5.6 24.2 0.7 1.5 1.9 2.7c6.5 7.3 12.4 13.5 15.7 21.7 1.6 4-1.3 9.6-3.6 12.6q-1.2 1.5-3.1 1.9c-4.5 1.1-7.7 3.3-9.7 7.6-1.6 3.6-3.2 6.1-6.4 8.6-4.7 3.5-9.8 6.3-14 10.4q-5.1 5-10.4 10c-2.5 2.4-5.9 6.4-7.1 9.2q-3.2 7.7-7.6 14.7"/><path class="f" d="m177.5 41.7q0.1 4.6 2.1 7.7c3 4.7 8.4 8.8 9.4 14.8q0.7 4 0.9 8.4c0.1 2-0.4 3.7-1.4 5.5-2.1 3.8 0.5 11 2.4 14.3q2.8 4.9 5.4 9.7c0.9 1.7 1.4 3.9 0.3 5.6-1.1 1.7-3.2 4.5-2.5 6.6q0.8 2.5 0.6 4.9-0.3 3.6 0 7.2c0.2 1.6-0.1 3.3-1 4.6q-2.9 4.4-4.9 9.2c-0.9 2.3-2.6 5.5-4.9 6.6-4.6 2.2-12.2 1.6-17.1 1.1-2.4-0.3-4.1 1.5-4.5 3.7-0.9 4.6-2.6 8.9-6.1 12.1q-4 3.5-6.8 9.1-0.8 1.6 0.2 3c5.7 8.4 8 18.8 6.3 28.4-0.7 4.3-2.6 8.2-2.6 12.8-0.1 5.5 0.3 11.9 2.9 17q0.2 0.5 0.8 0.5l5.6-0.4"/><path class="g" d="m172.8 231.1q-1.2-2-0.4-5.4 0.7-2.9 0.4-4.8 0 0 0.1 0-0.1 1.3 0 2.5 0.1 0.8 0.4 0 0.3-1.2 0.3-2.3-0.2-4.3-0.4-9-0.1-2.3-0.6-4.7-0.5-2.5-1-5.2-0.6-2.8-1.7-5.2-1.1-2.2-0.9-4.7 0.2-2.7 1.3-5.5 0.6-1.4 2-2.8 1.3-1.2 2.4-2.5 1.5-1.8 2.6-4.4 2.6-6 4-7.7 2-2.7 5-2.9 5.6-0.5 10.8-0.9c2.1-0.2 5.2-0.8 6.5-2.6q0.7-0.9 1.4-1.7 1-1.3 1.8-2.9 2.2-4.6 4.6-9 0.2-0.4 0.4-0.9 0.2-0.5 0.3-1 0.1-0.5 0.2-1 0-0.5 0.1-1c-0.1-5.5-0.2-11.1 0.4-16.7q0.2-1.4 0.9-3.1 0.8-1.8 0.6-3.3-0.4-2.3-1.4-5.4-0.2-0.5-0.7-0.7-0.5-0.2-0.4-0.8-1.7-3-3.2-5.9-0.6-1.2-0.7-2.3-0.2-1.4-0.6-2.6-0.4-1.4-0.6-2.8-0.4-4 0.4-7.7 0.7-3.7 0.4-6.8-0.4-4.6-1.9-7.4-1.2-2.5-2.5-5.2c-0.7-1.4-2.1-2.1-2.3-3.8q0-0.5-0.4-0.9l-0.9-0.7q-0.4-0.3-0.6-0.8-0.8-1.9-1.9-3.8-0.9-1.7-1.4-3.9-0.4-1.9-2.1-3.9-3.8-4.3-8.2-7.6-1.4-1.1-2.7-2.4-0.3-0.4-0.7-0.5-1.2-0.3-1.6-1.5-0.1-0.5-0.6-0.5-0.7-0.1-1.3-0.8-0.2-0.2-0.4-1-0.1-0.6-0.5-1-0.4-3.5-2.2-4.6c-5-2.7-9.3-6.4-15.1-8q-4.5-1.2-8.4-3-3.9-1.8-7.2-2-10.2-0.4-24.3 0.6c-5.1 0.4-9.5 2.2-13.4 5.1-10.5 7.8-19.4 18-21.5 30.4q-2.2 12.3-2.6 22.4-0.5 11.9 5.6 24.2 0.7 1.5 1.9 2.7c6.5 7.3 12.3 13.5 15.7 21.7 1.6 4-1.3 9.6-3.6 12.6q-1.2 1.5-3.1 1.9c-4.5 1.1-7.7 3.3-9.7 7.6-1.6 3.6-3.2 6.1-6.5 8.6-4.7 3.5-9.7 6.3-13.9 10.5q-5.1 4.9-10.4 9.9c-2.5 2.4-5.9 6.4-7.1 9.2q-3.2 7.7-7.6 14.7-8.6-8.7-11.1-12.7-4.8-7.8-9.5-15.5-5.1-8.3-8-18.6-4.7-16.5-6-32.7-0.7-8.5 0.1-15.4c0.7-6.4 1.4-13.3 3.3-19.5q3.8-12.8 10.2-25.9 4.3-8.6 10.7-16.5 15.3-19.1 33.9-29.8 16.9-9.7 36.7-13.6 9.8-2 20.3-2.1 50.5-0.6 86.8 35.6 7.2 7.2 12.7 15.4 5.8 8.7 10.5 19 4.4 9.6 6.3 17.8c4 17.1 5.5 34 2.3 51q-3.2 17.4-10.7 32.5-6.9 14.1-20.3 28.7-4.7 5-12.3 10.5-5.9 4.2-12.6 9.3-4.4 3.4-14.6 7.4z"/><path class="h" d="m177.5 41.7q0.1 4.6 2.1 7.7c3 4.7 8.4 8.8 9.4 14.8q0.7 4 0.9 8.4c0.1 2-0.4 3.7-1.4 5.5-2.1 3.8 0.5 11 2.4 14.3q2.8 4.9 5.4 9.7c0.9 1.7 1.4 3.9 0.3 5.6-1.1 1.7-3.2 4.5-2.5 6.6q0.8 2.5 0.6 4.9-0.3 3.6 0 7.2c0.2 1.6-0.1 3.3-1 4.6q-2.9 4.4-4.9 9.2c-0.9 2.3-2.6 5.5-4.9 6.6-4.6 2.2-12.2 1.6-17.1 1.1-2.4-0.3-4.1 1.5-4.5 3.7-0.9 4.6-2.6 8.9-6.1 12.1q-4 3.5-6.8 9.1-0.8 1.6 0.2 3c5.7 8.4 8 18.8 6.3 28.4-0.7 4.3-2.6 8.2-2.6 12.8-0.1 5.5 0.3 11.9 2.9 17q0.2 0.5 0.8 0.5l5.6-0.4q-1 0.5 0 1.7 0.4 0.3 0.8 0.3h0.7q0.7 0 0.6 0.7-0.2 1.4 0.1 2.9 0.1 0.6 0.5 0.9 0.5 0.4 0.3 0.9-0.2 0.6 0.4 0.8 0.3 0.1 0.4 0.4 0.1 0.3 0 0.6-0.1 0.5 0.4 0.9 0.2 0.1 0.4 0.2 0.2 0.2 0.3 0.4 0.2 0.1 0.3 0.3 0.2 0.2 0.3 0.5 0.4 0.7 0.2 1.3-0.3 0.9-1.1 0.4-1-0.6-1.7 0.3-0.1 0.1-0.3 0.2-0.2 0.1-0.4 0.1-0.2 0-0.4-0.1-0.2-0.1-0.3-0.3-4-6.1-7.6-11.8-0.6-1-1.8-0.6-1 0.3-1.9 0.5c-12.3 1.8-25.7 1-38.3-2q-5.2-1.3-11.8-2-8.2-0.9-16.4-2.3-2.1-0.3-8.3-2.3c-6.2-2-12.2-5-17.9-7.7q-3.7-1.7-7.3-4.4c-1.8-1.4-4-1.6-5.5-3q-4.2-3.8-3.2-5.7 4.4-7 7.6-14.7c1.2-2.8 4.6-6.8 7.1-9.2q5.3-5 10.4-10c4.2-4.1 9.3-6.9 14-10.4 3.2-2.5 4.8-5 6.4-8.6 2-4.3 5.2-6.5 9.7-7.6q1.9-0.4 3.1-1.9c2.3-3 5.2-8.6 3.6-12.6-3.3-8.2-9.2-14.4-15.7-21.7q-1.2-1.2-1.9-2.7-6.1-12.3-5.6-24.2 0.4-10.1 2.6-22.4c2.1-12.4 11-22.6 21.5-30.4 3.9-2.9 8.3-4.7 13.4-5.1q14.1-1 24.3-0.6 3.3 0.2 7.2 2 3.9 1.8 8.4 3c5.8 1.6 10.1 5.3 15.1 8q1.8 1.1 2.2 4.6z"/><path class="i" d="m177.5 41.7q0.4 0.4 0.6 1 0.1 0.8 0.3 1 0.6 0.7 1.3 0.8 0.5 0 0.6 0.5 0.4 1.2 1.6 1.5 0.4 0.1 0.8 0.4 1.2 1.4 2.6 2.5 4.4 3.3 8.2 7.6 1.7 2 2.1 3.9 0.5 2.2 1.4 3.9 1.1 1.9 1.9 3.8 0.2 0.5 0.6 0.8l0.9 0.7q0.4 0.4 0.4 0.9c0.2 1.7 1.6 2.4 2.3 3.8q1.3 2.7 2.6 5.2 1.4 2.8 1.8 7.4 0.3 3.1-0.4 6.8-0.8 3.7-0.4 7.7 0.2 1.4 0.6 2.8 0.5 1.2 0.6 2.6 0.1 1.1 0.7 2.3 1.5 2.9 3.2 5.9-0.1 0.6 0.4 0.7 0.5 0.3 0.7 0.8 1 3.1 1.4 5.4 0.2 1.5-0.6 3.3-0.7 1.7-0.9 3.1c-0.6 5.6-0.5 11.2-0.5 16.7q0 0.5 0 1-0.1 0.5-0.2 1-0.1 0.5-0.3 1-0.2 0.5-0.4 0.9-2.4 4.4-4.6 9-0.8 1.6-1.8 2.9-0.7 0.8-1.4 1.7c-1.3 1.7-4.4 2.4-6.5 2.6q-5.2 0.4-10.8 0.9-3 0.2-5 2.8-1.4 1.8-4 7.8-1.1 2.6-2.6 4.4-1.1 1.3-2.4 2.5-1.4 1.4-2 2.8-1.1 2.8-1.3 5.5-0.2 2.4 0.9 4.7 1.1 2.4 1.7 5.2 0.5 2.7 1 5.2 0.5 2.4 0.6 4.7 0.2 4.7 0.4 9 0 1.1-0.3 2.3-0.3 0.8-0.4 0-0.1-1.2 0-2.5-0.1 0-0.1 0 0.3 1.9-0.4 4.8-0.8 3.4 0.4 5.4-5 2.6-10.2 3l-5.6 0.4q-0.6 0-0.8-0.5c-2.6-5.1-3-11.5-2.9-17 0-4.6 1.9-8.5 2.6-12.8 1.7-9.6-0.6-20-6.3-28.4q-1-1.4-0.2-3 2.8-5.6 6.8-9.1c3.5-3.2 5.2-7.5 6.1-12.1 0.4-2.2 2.1-4 4.5-3.7 4.9 0.5 12.5 1.1 17.1-1.1 2.3-1.1 4-4.3 4.9-6.6q2-4.8 4.9-9.2c0.9-1.3 1.2-3 1-4.6q-0.3-3.6 0-7.2 0.2-2.4-0.6-4.9c-0.7-2.1 1.4-4.9 2.5-6.6 1.1-1.7 0.6-3.9-0.3-5.6q-2.6-4.8-5.4-9.7c-1.9-3.3-4.5-10.5-2.4-14.3 1-1.8 1.5-3.5 1.4-5.5q-0.2-4.4-0.9-8.4c-1-6-6.4-10.1-9.4-14.8q-2-3.1-2.1-7.7z"/></svg>